HIERARCHY
ROOT Hips
{
    OFFSET 0.000000 0.000000 0.000000
    CHANNELS 6 Xposition Yposition Zposition Zrotation Yrotation Xrotation
    JOINT LeftUpLeg
    {
        OFFSET 1.363060 -1.794630 0.839290
        CHANNELS 3 Zrotation Yrotation Xrotation
        JOINT LeftLeg
        {
            OFFSET 2.448110 -6.726130 0.000000
            CHANNELS 3 Zrotation Yrotation Xrotation
            JOINT LeftFoot
            {
                OFFSET 2.562200 -7.039589 0.000000
                CHANNELS 3 Zrotation Yrotation Xrotation
                JOINT LeftToeBase
                {
                    OFFSET 0.157640 -0.433110 2.322550
                    CHANNELS 3 Zrotation Yrotation Xrotation
                    End Site
                    {
                        OFFSET 0.000000 0.000000 0.000000
                    }
                }
            }
        }
    }
    JOINT RightUpLeg
    {
        OFFSET -1.305520 -1.794630 0.839290
        CHANNELS 3 Zrotation Yrotation Xrotation
        JOINT RightLeg
        {
            OFFSET -2.542530 -6.985549 0.000000
            CHANNELS 3 Zrotation Yrotation Xrotation
            JOINT RightFoot
            {
                OFFSET -2.568260 -7.056230 0.000000
                CHANNELS 3 Zrotation Yrotation Xrotation
                JOINT RightToeBase
                {
                    OFFSET -0.164730 -0.452590 2.363150
                    CHANNELS 3 Zrotation Yrotation Xrotation
                    End Site
                    {
                        OFFSET 0.000000 0.000000 0.000000
                    }
                }
            }
        }
    }
    JOINT Spine
    {
        OFFSET 0.028270 2.035590 -0.193380
        CHANNELS 3 Zrotation Yrotation Xrotation
        JOINT Spine1
        {
            OFFSET 0.056720 2.048850 -0.042750
            CHANNELS 3 Zrotation Yrotation Xrotation
            JOINT Neck1
            {
                OFFSET -0.054170 1.746240 0.172020
                CHANNELS 3 Zrotation Yrotation Xrotation
                JOINT Head
                {
                    OFFSET 0.104070 1.761360 -0.123970
                    CHANNELS 3 Zrotation Yrotation Xrotation
                    End Site
                    {
                        OFFSET 0.000000 0.000000 0.000000
                    }
                }
            }
            JOINT LeftShoulder
            {
                OFFSET 0.000000 0.000000 0.000000
                CHANNELS 3 Zrotation Yrotation Xrotation
                JOINT LeftArm
                {
                    OFFSET 3.362410 1.200890 -0.311210
                    CHANNELS 3 Zrotation Yrotation Xrotation
                    JOINT LeftForeArm
                    {
                        OFFSET 4.983000 -0.000000 -0.000000
                        CHANNELS 3 Zrotation Yrotation Xrotation
                        JOINT LeftHand
                        {
                            OFFSET 3.483560 -0.000000 -0.000000
                            CHANNELS 3 Zrotation Yrotation Xrotation
                            End Site
                            {
                                OFFSET 0.000000 0.000000 0.000000
                            }
                        }
                    }
                }
            }
            JOINT RightShoulder
            {
                OFFSET 0.000000 0.000000 0.000000
                CHANNELS 3 Zrotation Yrotation Xrotation
                JOINT RightArm
                {
                    OFFSET -3.136600 1.374050 -0.404650
                    CHANNELS 3 Zrotation Yrotation Xrotation
                    JOINT RightForeArm
                    {
                        OFFSET -5.241900 -0.000000 -0.000000
                        CHANNELS 3 Zrotation Yrotation Xrotation
                        JOINT RightHand
                        {
                            OFFSET -3.444170 -0.000000 -0.000000
                            CHANNELS 3 Zrotation Yrotation Xrotation
                            End Site
                            {
                                OFFSET 0.000000 0.000000 0.000000
                            }
                        }
                    }
                }
            }
        }
    }
}
MOTION
Frames: 16
Frame Time: 0.016667
26.908808 17.375256 1.742422 -0.813560 0.690156 25.161097 -19.090208 -6.862099 -50.930733 -21.597120 -23.488214 53.272850 -3.237903 44.081764 -6.056475 -0.297074 -0.217048 -1.804102 17.251801 7.502536 -53.170334 49.600266 9.165293 85.366699 8.476036 -55.938633 -19.866589 0.109316 0.616907 -8.024463 2.435863 0.682668 15.867747 -0.001606 1.025618 -4.521714 2.923841 -4.775671 23.168383 -2.277239 -2.736208 -29.344238 5.147323 -10.341529 -0.593104 -77.580223 -24.903896 40.606091 65.577118 -52.858753 -68.834427 3.498670 -10.944710 -17.200428 -2.223215 11.507346 1.378624 71.154152 25.121000 31.145998 -47.407169 52.944752 -44.024330 -6.498868 9.726018 -1.100070 
26.939190 17.332033 1.854821 -0.767320 0.654497 25.468645 -20.377699 -5.831030 -52.060234 -23.700373 -24.377077 56.380325 -2.365266 44.778557 -6.894532 -0.302678 -0.207510 -1.848411 16.566786 7.500536 -54.323257 50.414600 8.236653 86.362984 9.675519 -56.455746 -22.930611 -0.041773 -0.090569 -5.512711 2.494577 0.499566 15.797363 0.016160 0.910692 -4.541648 2.706238 -4.708635 22.999439 -1.789030 -2.577482 -29.449902 5.257818 -10.118556 -0.614704 -77.120667 -24.836004 40.134380 65.674103 -53.120144 -68.848320 3.017663 -11.035031 -16.822245 -2.244112 11.239386 1.314184 70.676018 25.107214 30.827831 -47.872616 53.024147 -45.595257 -7.793875 9.169025 -2.209384 
26.965994 17.301861 1.966050 -0.773857 0.897276 25.612999 -21.500717 -5.120137 -52.919628 -25.461838 -25.151991 59.341087 -2.297684 45.313828 -7.771420 -0.383572 -0.257388 -2.354918 15.416575 7.770298 -54.773941 49.256256 7.738536 85.078781 9.394299 -57.135136 -24.147976 -0.000429 0.084689 -5.929403 2.724164 0.388732 15.813784 0.058653 0.866768 -4.502656 2.846858 -4.773667 22.890465 -1.812525 -2.669645 -29.312508 5.205556 -10.338732 -0.511774 -76.602249 -24.977419 39.508087 65.634644 -53.126778 -69.088203 3.174784 -10.720300 -16.975725 -2.193622 11.391122 1.363174 69.963394 24.336674 29.868971 -48.259735 53.058868 -45.885818 -5.673698 8.726774 -1.330047 
26.986851 17.284607 2.069714 -0.683366 1.093700 25.802809 -21.922449 -5.174390 -53.257217 -26.197330 -25.112921 60.741611 -1.611363 45.708549 -8.112727 -0.291404 -0.245141 -1.745881 13.951639 8.355962 -55.138180 47.547634 7.512411 83.223358 8.354363 -57.911686 -24.628347 -0.031023 -0.042095 -5.892970 2.827293 0.241080 16.014990 0.073720 0.793711 -4.562293 2.990979 -4.596011 22.726532 -1.746896 -2.545470 -29.805325 5.364228 -10.340601 -0.520694 -76.412109 -25.075081 39.266842 66.098175 -52.819393 -69.394531 3.707203 -10.685227 -17.582607 -2.344614 11.251348 1.336241 69.716896 24.056955 29.208693 -49.481304 52.928070 -47.398624 -7.264403 9.098720 -2.807537 
27.004740 17.276793 2.174006 -0.633219 1.083692 26.052462 -21.531115 -5.605551 -53.312622 -25.327671 -23.871092 60.126503 -1.655063 44.744354 -8.280065 -0.312279 -0.188429 -1.926165 12.713983 8.948475 -55.333206 46.239021 8.113347 81.493790 6.067377 -59.320705 -23.798761 -0.034784 -0.061791 -5.544417 2.880617 0.295622 16.138330 0.072899 0.847324 -4.489347 3.196401 -4.496061 22.608540 -1.922050 -2.504005 -30.180588 5.218789 -10.208091 -0.541832 -76.403618 -25.569252 39.986320 65.758827 -51.991482 -68.309967 2.813164 -10.634588 -17.628546 -2.259289 11.124428 1.449948 69.151085 23.965422 28.236748 -49.189903 52.963451 -47.963577 -6.273791 8.353934 -2.809028 
27.017494 17.272255 2.275460 -0.747577 1.063112 26.168926 -20.411856 -6.188889 -52.941914 -25.532434 -22.934021 59.714890 -1.704063 45.080933 -8.536004 -0.405936 -0.366394 -2.430150 12.343491 9.301360 -55.416473 44.890549 9.390687 80.462929 4.504139 -60.354687 -23.677666 -0.035624 -0.066503 -5.433809 2.952283 0.183284 16.286779 0.196317 0.790898 -4.610314 3.193106 -4.607615 22.764431 -2.077424 -2.737190 -30.038193 5.291137 -10.487955 -0.656034 -76.579964 -25.206688 39.721542 65.563881 -51.652298 -67.119179 1.450855 -10.998677 -16.972773 -2.169860 11.227965 1.452968 69.128998 23.897354 28.515009 -50.894764 51.817616 -48.434547 -7.470973 8.981556 -4.356084 
27.024206 17.262531 2.363117 -0.724561 0.738158 26.793598 -20.279734 -6.173670 -53.478256 -25.837107 -22.562405 59.857708 -1.614778 44.874722 -9.191042 -0.342281 0.523294 -2.605130 11.692472 9.893209 -55.978168 43.632347 11.030122 79.214417 3.597434 -61.361641 -24.191011 -0.151667 -0.532064 -4.636080 2.838195 0.384642 16.149450 0.136215 0.913794 -4.564127 3.283995 -4.583392 22.712465 -2.233030 -2.706659 -30.575220 5.185694 -10.524273 -0.610049 -76.515686 -25.739859 39.589447 65.307213 -51.006481 -67.274269 3.457470 -10.844159 -18.169777 -2.188082 11.415898 1.454293 69.017151 23.915260 27.789026 -51.321526 51.557156 -48.657089 -7.178620 8.761695 -4.473180 
27.032234 17.248175 2.448226 -0.854088 0.508903 27.239777 -19.881638 -6.137952 -53.797821 -25.869629 -21.909658 59.704113 -1.751081 44.861271 -9.836189 -0.677508 -0.603923 -4.125424 11.554103 10.257082 -56.322479 42.330196 12.913352 78.096916 3.019682 -62.299953 -24.826248 -0.143392 -0.498999 -4.520991 2.862238 0.444253 16.105270 0.145481 0.950550 -4.659990 3.140067 -4.570151 22.686605 -2.046700 -2.620203 -30.424078 5.206896 -10.598767 -0.688346 -77.074600 -25.893736 40.069355 64.645752 -50.306091 -65.777161 2.113688 -11.007553 -17.624271 -2.176976 11.584853 1.390400 69.052101 24.042643 27.811497 -51.677406 51.131634 -48.942188 -6.700067 8.069632 -4.518781 
27.032701 17.228420 2.538711 -1.007899 0.616479 27.386524 -20.130270 -5.640602 -53.873619 -25.873404 -21.806423 59.820648 -1.167766 44.541477 -10.188079 -0.614979 -0.659657 -3.661189 11.985960 10.138191 -56.332253 41.430283 15.034160 77.468742 2.452296 -63.459679 -24.873594 -0.122925 -0.420030 -5.297936 3.040437 0.421406 16.298286 0.099917 0.945788 -4.678229 3.231457 -4.445880 22.800585 -1.911150 -2.471145 -31.038456 5.152657 -10.655797 -0.637219 -77.606522 -26.301031 40.546009 63.931705 -49.719456 -65.040855 1.996799 -10.888292 -17.753944 -2.210759 11.619348 1.353263 69.439209 24.178196 27.775003 -52.765266 51.118500 -48.872105 -5.853734 8.455951 -3.940318 
27.030378 17.199196 2.620254 -1.059955 0.676785 27.657923 -20.530249 -5.490372 -54.137424 -27.396532 -22.506182 61.559464 -0.321014 46.217834 -11.310755 -0.569728 -0.448926 -3.485006 12.444600 9.636665 -56.612705 40.242569 16.879858 76.984489 6.199010 -61.577782 -27.601351 0.051654 0.297151 -5.829171 3.140204 0.304911 16.317028 0.056485 0.882314 -4.747302 3.333357 -4.551098 22.979366 -2.320720 -2.672470 -31.237564 5.168361 -10.858867 -0.693102 -78.232460 -26.588631 40.860386 63.263950 -49.002750 -64.156281 2.415959 -11.041657 -18.015934 -2.316489 11.703272 1.349683 69.829407 24.635674 27.490078 -53.568035 51.679482 -50.415630 -6.631221 8.048395 -4.182897 
27.025932 17.167509 2.692714 -1.128893 0.963152 27.939516 -20.993792 -5.506247 -54.223293 -27.942390 -23.067888 62.534187 0.494808 47.060711 -12.303334 -0.429985 -0.163841 -2.728932 12.312447 9.393236 -56.804028 41.945206 18.523224 78.658951 14.483261 -59.201206 -34.632870 0.107160 0.479831 -4.432908 3.361406 0.103260 16.406961 -0.073826 0.742897 -4.723690 3.382341 -4.524014 22.882874 -2.138652 -2.610485 -31.516535 5.125886 -10.963579 -0.668065 -78.801224 -27.137886 41.406673 62.986382 -48.346672 -63.783878 2.480780 -11.202271 -18.599468 -2.448745 11.685065 1.372699 70.582382 25.267303 27.617744 -55.125137 52.230206 -51.994701 -6.251589 7.953100 -4.055066 
27.019596 17.133488 2.765793 -1.092721 1.221955 28.071430 -21.296370 -5.935974 -53.970745 -28.001448 -23.309391 63.046288 1.572041 48.160088 -13.111036 -0.327350 0.650954 -2.591761 12.858465 8.696293 -56.976990 42.163200 19.268467 79.967445 14.419346 -56.809032 -33.842533 -0.021399 -0.035913 -3.330479 3.456673 -0.158668 16.589245 -0.146978 0.604309 -4.860092 3.579974 -4.509666 23.271288 -2.552167 -2.717895 -32.467136 5.088837 -11.267816 -0.808566 -79.522926 -27.493280 41.907917 61.970039 -47.723080 -62.474075 2.857079 -10.846664 -18.144117 -2.544826 11.755731 1.382452 71.229507 25.829542 27.565334 -56.577648 53.277397 -54.058262 -6.292906 7.757462 -3.780785 
27.007696 17.094812 2.827744 -1.023705 1.684142 28.242392 -20.894621 -7.032665 -53.577263 -27.279898 -22.830498 62.670532 1.611651 48.388283 -14.061878 -0.283405 0.706352 -2.347903 12.436805 8.747527 -56.804451 43.904327 19.155495 81.612663 19.293388 -56.058273 -40.038845 -0.099180 -0.326550 -4.113584 3.753852 -0.358122 16.607697 -0.545697 0.413403 -4.603485 3.785823 -4.393421 22.779427 -2.031818 -2.517126 -31.399858 4.568956 -11.420270 -0.176690 -79.725044 -29.052347 43.424500 62.001514 -46.450760 -61.440735 2.701995 -10.607349 -18.849024 -2.537212 11.703691 1.088697 72.057251 26.504370 27.659525 -58.321976 54.225281 -56.441971 -6.550818 7.654432 -3.854831 
26.993055 17.042828 2.882044 -0.957824 1.982620 28.831171 -20.210955 -8.435258 -53.732925 -25.865536 -21.630405 61.705971 2.231594 48.188465 -14.993057 -0.179950 0.410698 -1.484201 11.086468 9.710649 -56.829014 44.542362 18.591614 81.518097 21.463289 -55.786945 -43.436966 -0.078135 -0.244616 -4.259174 3.852867 -0.542882 16.449663 -0.726188 0.272464 -4.653727 4.042533 -4.437980 22.733702 -2.181445 -2.681365 -32.064400 4.601149 -11.711066 -0.238451 -80.392593 -29.936525 44.182129 61.202797 -45.651127 -60.845695 2.781997 -10.188568 -19.176735 -2.838616 11.749345 1.086434 73.080269 27.265802 27.634123 -60.204868 55.427902 -58.817459 -6.059297 7.403306 -3.339701 
26.979471 16.995251 2.940030 -1.095647 2.135868 29.109829 -18.797209 -9.851829 -53.754459 -26.172104 -20.522141 61.947010 2.105321 49.533237 -16.683084 -0.150228 0.171285 -1.117559 9.666306 10.982532 -56.465137 43.779900 17.862518 80.086273 23.719765 -54.144966 -45.458214 0.067106 0.325961 -4.532743 3.954400 -0.630528 16.378763 -0.820156 0.216106 -4.681179 4.215367 -4.433676 22.702976 -2.194173 -2.734716 -31.764614 4.614057 -12.132192 -0.257173 -80.889740 -30.876133 44.078178 59.805950 -45.486549 -60.237473 3.261569 -10.110782 -19.073591 -3.020067 12.031363 1.135252 73.907990 27.979643 27.439543 -62.191628 56.744537 -61.588200 -6.570862 7.337406 -3.338887 
26.962547 16.933113 2.996981 -1.458370 1.969320 29.375542 -17.847345 -10.314158 -54.078552 -25.592665 -19.329962 61.817852 1.443658 49.295094 -18.660591 -0.015370 -0.018328 -0.086366 8.823540 12.578409 -56.553223 44.461563 16.902796 80.450768 25.276140 -54.665466 -48.306278 0.062616 0.305690 -4.425406 4.010193 -0.511232 16.410210 -0.841454 0.300944 -4.736938 4.300712 -4.452438 22.636526 -2.105228 -2.775308 -31.956335 4.824287 -12.178075 -0.295231 -81.615799 -31.960495 44.637478 60.866482 -44.535137 -59.475021 6.800981 -11.193671 -20.020512 -3.297366 12.101893 1.126106 74.922096 28.851721 27.540342 -64.061134 57.873226 -63.817825 -6.605989 7.109390 -3.085442 
